<mxfile host="app.diagrams.net" agent="Mozilla/5.0 (Windows NT 10.0; Win64; x64) AppleWebKit/537.36 (KHTML, like Gecko) Chrome/128.0.0.0 Safari/537.36" version="24.7.7">
  <diagram name="Page-1" id="ehAeS6bBUr92qUZnSRuk">
    <mxGraphModel dx="1050" dy="596" grid="1" gridSize="10" guides="1" tooltips="1" connect="1" arrows="1" fold="1" page="1" pageScale="1" pageWidth="850" pageHeight="1100" math="0" shadow="0">
      <root>
        <mxCell id="0" />
        <mxCell id="1" parent="0" />
        <mxCell id="PKKW69Uqa1zjhWMYHplP-11" value="" style="edgeStyle=orthogonalEdgeStyle;rounded=0;orthogonalLoop=1;jettySize=auto;html=1;" edge="1" parent="1" source="PKKW69Uqa1zjhWMYHplP-1" target="PKKW69Uqa1zjhWMYHplP-10">
          <mxGeometry relative="1" as="geometry" />
        </mxCell>
        <mxCell id="PKKW69Uqa1zjhWMYHplP-1" value="Start" style="rounded=1;whiteSpace=wrap;html=1;" vertex="1" parent="1">
          <mxGeometry x="280" y="150" width="120" height="30" as="geometry" />
        </mxCell>
        <mxCell id="PKKW69Uqa1zjhWMYHplP-13" value="" style="edgeStyle=orthogonalEdgeStyle;rounded=0;orthogonalLoop=1;jettySize=auto;html=1;" edge="1" parent="1" source="PKKW69Uqa1zjhWMYHplP-10" target="PKKW69Uqa1zjhWMYHplP-12">
          <mxGeometry relative="1" as="geometry" />
        </mxCell>
        <mxCell id="PKKW69Uqa1zjhWMYHplP-10" value="Generate a random word" style="whiteSpace=wrap;html=1;rounded=1;" vertex="1" parent="1">
          <mxGeometry x="280" y="210" width="120" height="45" as="geometry" />
        </mxCell>
        <mxCell id="PKKW69Uqa1zjhWMYHplP-15" value="" style="edgeStyle=orthogonalEdgeStyle;rounded=0;orthogonalLoop=1;jettySize=auto;html=1;" edge="1" parent="1" source="PKKW69Uqa1zjhWMYHplP-12" target="PKKW69Uqa1zjhWMYHplP-14">
          <mxGeometry relative="1" as="geometry" />
        </mxCell>
        <mxCell id="PKKW69Uqa1zjhWMYHplP-12" value="Generate empty spaces of length of the generated word" style="whiteSpace=wrap;html=1;rounded=1;" vertex="1" parent="1">
          <mxGeometry x="280" y="290" width="120" height="50" as="geometry" />
        </mxCell>
        <mxCell id="PKKW69Uqa1zjhWMYHplP-17" value="" style="edgeStyle=orthogonalEdgeStyle;rounded=0;orthogonalLoop=1;jettySize=auto;html=1;" edge="1" parent="1" source="PKKW69Uqa1zjhWMYHplP-14" target="PKKW69Uqa1zjhWMYHplP-16">
          <mxGeometry relative="1" as="geometry" />
        </mxCell>
        <mxCell id="PKKW69Uqa1zjhWMYHplP-14" value="Ask the user to guess a letter" style="whiteSpace=wrap;html=1;rounded=1;" vertex="1" parent="1">
          <mxGeometry x="280" y="370" width="120" height="40" as="geometry" />
        </mxCell>
        <mxCell id="PKKW69Uqa1zjhWMYHplP-19" value="" style="edgeStyle=orthogonalEdgeStyle;rounded=0;orthogonalLoop=1;jettySize=auto;html=1;fillColor=#d5e8d4;strokeColor=#82b366;" edge="1" parent="1" source="PKKW69Uqa1zjhWMYHplP-16" target="PKKW69Uqa1zjhWMYHplP-18">
          <mxGeometry relative="1" as="geometry" />
        </mxCell>
        <mxCell id="PKKW69Uqa1zjhWMYHplP-21" value="" style="edgeStyle=orthogonalEdgeStyle;rounded=0;orthogonalLoop=1;jettySize=auto;html=1;fillColor=#f8cecc;strokeColor=#b85450;" edge="1" parent="1" source="PKKW69Uqa1zjhWMYHplP-16" target="PKKW69Uqa1zjhWMYHplP-20">
          <mxGeometry relative="1" as="geometry" />
        </mxCell>
        <mxCell id="PKKW69Uqa1zjhWMYHplP-16" value="Is the guessed letter is in the word&amp;gt;&amp;gt;" style="rhombus;whiteSpace=wrap;html=1;rounded=1;" vertex="1" parent="1">
          <mxGeometry x="285" y="440" width="110" height="90" as="geometry" />
        </mxCell>
        <mxCell id="PKKW69Uqa1zjhWMYHplP-33" value="" style="edgeStyle=orthogonalEdgeStyle;rounded=0;orthogonalLoop=1;jettySize=auto;html=1;" edge="1" parent="1" source="PKKW69Uqa1zjhWMYHplP-18" target="PKKW69Uqa1zjhWMYHplP-32">
          <mxGeometry relative="1" as="geometry" />
        </mxCell>
        <mxCell id="PKKW69Uqa1zjhWMYHplP-18" value="Fill the empty spaces with that character" style="whiteSpace=wrap;html=1;rounded=1;" vertex="1" parent="1">
          <mxGeometry x="280" y="570" width="120" height="45" as="geometry" />
        </mxCell>
        <mxCell id="PKKW69Uqa1zjhWMYHplP-25" value="" style="edgeStyle=orthogonalEdgeStyle;rounded=0;orthogonalLoop=1;jettySize=auto;html=1;" edge="1" parent="1" source="PKKW69Uqa1zjhWMYHplP-20" target="PKKW69Uqa1zjhWMYHplP-24">
          <mxGeometry relative="1" as="geometry" />
        </mxCell>
        <mxCell id="PKKW69Uqa1zjhWMYHplP-20" value="Throw a message, negate one life." style="whiteSpace=wrap;html=1;rounded=1;" vertex="1" parent="1">
          <mxGeometry x="470" y="455" width="120" height="60" as="geometry" />
        </mxCell>
        <mxCell id="PKKW69Uqa1zjhWMYHplP-30" value="" style="edgeStyle=orthogonalEdgeStyle;rounded=0;orthogonalLoop=1;jettySize=auto;html=1;fillColor=#f8cecc;strokeColor=#b85450;" edge="1" parent="1" source="PKKW69Uqa1zjhWMYHplP-24" target="PKKW69Uqa1zjhWMYHplP-29">
          <mxGeometry relative="1" as="geometry" />
        </mxCell>
        <mxCell id="PKKW69Uqa1zjhWMYHplP-24" value="Check if the user is left with more life" style="rhombus;whiteSpace=wrap;html=1;rounded=1;" vertex="1" parent="1">
          <mxGeometry x="465" y="550" width="130" height="85" as="geometry" />
        </mxCell>
        <mxCell id="PKKW69Uqa1zjhWMYHplP-26" value="" style="endArrow=classic;html=1;rounded=0;exitX=0.949;exitY=0.527;exitDx=0;exitDy=0;exitPerimeter=0;fillColor=#d5e8d4;strokeColor=#82b366;" edge="1" parent="1" source="PKKW69Uqa1zjhWMYHplP-24" target="PKKW69Uqa1zjhWMYHplP-14">
          <mxGeometry width="50" height="50" relative="1" as="geometry">
            <mxPoint x="400" y="400" as="sourcePoint" />
            <mxPoint x="450" y="350" as="targetPoint" />
            <Array as="points">
              <mxPoint x="710" y="595" />
              <mxPoint x="710" y="390" />
            </Array>
          </mxGeometry>
        </mxCell>
        <mxCell id="PKKW69Uqa1zjhWMYHplP-27" value="Life available" style="text;html=1;align=center;verticalAlign=middle;whiteSpace=wrap;rounded=0;fillColor=#d5e8d4;strokeColor=#82b366;" vertex="1" parent="1">
          <mxGeometry x="595" y="560" width="100" height="30" as="geometry" />
        </mxCell>
        <mxCell id="PKKW69Uqa1zjhWMYHplP-29" value="" style="ellipse;whiteSpace=wrap;html=1;rounded=1;" vertex="1" parent="1">
          <mxGeometry x="500" y="680" width="60" height="32.5" as="geometry" />
        </mxCell>
        <mxCell id="PKKW69Uqa1zjhWMYHplP-31" value="End flow" style="text;html=1;align=center;verticalAlign=middle;whiteSpace=wrap;rounded=0;fillColor=#f8cecc;strokeColor=#b85450;" vertex="1" parent="1">
          <mxGeometry x="535" y="635" width="60" height="30" as="geometry" />
        </mxCell>
        <mxCell id="PKKW69Uqa1zjhWMYHplP-35" value="" style="edgeStyle=orthogonalEdgeStyle;rounded=0;orthogonalLoop=1;jettySize=auto;html=1;" edge="1" parent="1" source="PKKW69Uqa1zjhWMYHplP-32" target="PKKW69Uqa1zjhWMYHplP-34">
          <mxGeometry relative="1" as="geometry" />
        </mxCell>
        <mxCell id="PKKW69Uqa1zjhWMYHplP-32" value="Check if the word is complete?" style="rhombus;whiteSpace=wrap;html=1;rounded=1;" vertex="1" parent="1">
          <mxGeometry x="290" y="655" width="100" height="82.5" as="geometry" />
        </mxCell>
        <mxCell id="PKKW69Uqa1zjhWMYHplP-34" value="" style="ellipse;whiteSpace=wrap;html=1;rounded=1;" vertex="1" parent="1">
          <mxGeometry x="315" y="770" width="50" height="30" as="geometry" />
        </mxCell>
        <mxCell id="PKKW69Uqa1zjhWMYHplP-36" value="You won" style="text;html=1;align=center;verticalAlign=middle;whiteSpace=wrap;rounded=0;fillColor=#d5e8d4;strokeColor=#82b366;" vertex="1" parent="1">
          <mxGeometry x="350" y="737.5" width="60" height="30" as="geometry" />
        </mxCell>
        <mxCell id="PKKW69Uqa1zjhWMYHplP-37" value="" style="endArrow=classic;html=1;rounded=0;entryX=0;entryY=0.5;entryDx=0;entryDy=0;exitX=0;exitY=0.5;exitDx=0;exitDy=0;" edge="1" parent="1" source="PKKW69Uqa1zjhWMYHplP-32" target="PKKW69Uqa1zjhWMYHplP-14">
          <mxGeometry width="50" height="50" relative="1" as="geometry">
            <mxPoint x="390" y="620" as="sourcePoint" />
            <mxPoint x="440" y="570" as="targetPoint" />
            <Array as="points">
              <mxPoint x="220" y="696" />
              <mxPoint x="220" y="390" />
            </Array>
          </mxGeometry>
        </mxCell>
      </root>
    </mxGraphModel>
  </diagram>
</mxfile>
